<?xml version="1.0" encoding="iso-8859-1"?>
<!-- Generator: Adobe Illustrator 19.0.0, SVG Export Plug-In . SVG Version: 6.00 Build 0)  -->
<svg version="1.1" id="Layer_1" xmlns="http://www.w3.org/2000/svg" xmlns:xlink="http://www.w3.org/1999/xlink" x="0px" y="0px"
	 viewBox="0 0 512 512" style="enable-background:new 0 0 512 512;" xml:space="preserve">
<path style="fill:#8C614B;" d="M390.025,396.234c11.007-15.599-0.508,1.227,69.275-101.545c3.275-4.822,2.02-11.384-2.802-14.657
	c-4.821-3.275-11.382-2.022-14.656,2.801c-68.664,101.118-58.132,85.761-68.86,100.933
	C376.769,389.893,382.854,394.451,390.025,396.234z"/>
<path style="fill:#725346;" d="M450.509,287.99c2.109-3.107,5.538-4.779,9.029-4.781c-4.026-6.51-13.413-6.682-17.695-0.376
	c-68.664,101.118-58.132,85.761-68.86,100.933c1.833,2.967,4.21,5.563,6.984,7.656C390.14,377.034,379.65,392.345,450.509,287.99z"
	/>
<path style="fill:#FF9C01;" d="M116.744,397.943c14.234-1.274,25.431-13.262,25.431-27.822c0-4.143,3.358-7.5,7.5-7.5
	c4.142,0,7.5,3.357,7.5,7.5c0,15.406,12.535,27.94,27.943,27.94s27.941-12.533,27.941-27.94c0-4.143,3.358-7.5,7.5-7.5
	c4.142,0,7.5,3.357,7.5,7.5c0,15.406,12.534,27.94,27.942,27.94c15.407,0,27.942-12.533,27.942-27.94c0-4.143,3.358-7.5,7.5-7.5
	s7.5,3.357,7.5,7.5c0,14.6,11.258,26.612,25.549,27.831c-0.002-5.985-0.045-140.891-0.047-147.752L220.535,145.232L116.696,250.268
	C116.698,257.325,116.742,392.202,116.744,397.943z"/>
<path style="fill:#FF8103;" d="M141.695,224.981l-24.999,25.287c0.002,7.058,0.047,141.934,0.048,147.676
	c12.513-1.12,22.675-10.52,24.951-22.669V224.981z"/>
<path style="fill:#5A6266;" d="M213.058,370.122c0-4.143,3.358-7.5,7.5-7.5c4.142,0,7.5,3.357,7.5,7.5
	c0,16.317,14.055,29.368,30.585,27.812l-0.025-74.561c-0.002-9.694-7.863-17.548-17.557-17.543l-40.952,0.014
	c-9.692,0.001-17.546,7.861-17.543,17.553v74.546C194.581,399.039,213.058,387.405,213.058,370.122z"/>
<path style="fill:#4B5256;" d="M207.564,323.395c-0.003-9.691,7.852-17.552,17.543-17.553l16.119-0.006
	c-33.523,0,42.631-0.022-41.118,0.006c-9.692,0.001-17.546,7.861-17.543,17.553v74.546c6.475,0.592,19.128-3.302,24.999-11.235
	V323.395z"/>
<path style="fill:#8C614B;" d="M337.867,265.761L220.535,147.232L103.28,265.842c-5.48,5.541-14.417,5.596-19.959,0.113
	c-5.542-5.48-5.597-14.417-0.114-19.956l127.282-128.753c5.502-5.562,14.516-5.607,20.07-0.01l127.37,128.669
	c5.483,5.538,5.439,14.476-0.101,19.958C352.286,271.351,343.346,271.3,337.867,265.761z"/>
<path style="fill:#725346;" d="M361.819,253.58c-5.818,3.931-13.687,3.233-18.714-1.85
	c-0.003-0.003-114.968-116.141-114.968-116.141c-7.66-7.738-15.191,0-15.191,0l0,0L98.048,251.813
	c-5.069,5.125-12.963,5.748-18.726,1.851c-2.178,13.524,14.335,21.906,23.958,12.178l117.255-118.609l117.333,118.529
	C347.515,275.515,363.991,267.071,361.819,253.58z"/>
<g>
	<path style="fill:#94DCED;" d="M475.28,24.963c-3.599-2.051-4.853-6.631-2.802-10.229l6.228-10.925
		c2.052-3.6,6.633-4.853,10.229-2.802c3.599,2.051,4.853,6.631,2.802,10.228l-6.228,10.925
		C483.458,25.761,478.877,27.013,475.28,24.963z"/>
	<path style="fill:#94DCED;" d="M434.669,96.225c-3.599-2.052-4.854-6.632-2.803-10.229l6.227-10.925
		c2.051-3.6,6.632-4.848,10.228-2.803c3.599,2.052,4.854,6.632,2.803,10.229l-6.227,10.925
		C442.85,97.015,438.273,98.275,434.669,96.225z"/>
	<path style="fill:#94DCED;" d="M414.363,131.854c-3.599-2.051-4.853-6.631-2.802-10.228l6.227-10.924
		c2.052-3.6,6.631-4.854,10.229-2.802c3.599,2.051,4.853,6.631,2.802,10.228l-6.227,10.924
		C422.542,132.65,417.963,133.906,414.363,131.854z"/>
	<path style="fill:#94DCED;" d="M394.055,167.485c-3.599-2.052-4.853-6.632-2.801-10.229l6.228-10.923
		c2.052-3.598,6.633-4.851,10.229-2.801c3.599,2.052,4.853,6.632,2.801,10.229l-6.228,10.923
		C402.233,168.284,397.652,169.535,394.055,167.485z"/>
	<path style="fill:#94DCED;" d="M373.75,203.117c-3.599-2.052-4.853-6.632-2.801-10.229l6.228-10.923
		c2.051-3.599,6.632-4.853,10.229-2.801c3.599,2.053,4.852,6.632,2.801,10.229l-6.227,10.923
		C381.928,203.915,377.347,205.167,373.75,203.117z"/>
	<path style="fill:#94DCED;" d="M371.652,24.963c-3.599-2.051-4.853-6.631-2.802-10.229l6.228-10.925
		c2.052-3.6,6.632-4.853,10.229-2.802c3.599,2.051,4.853,6.631,2.802,10.228l-6.228,10.925
		C379.83,25.761,375.248,27.013,371.652,24.963z"/>
	<path style="fill:#94DCED;" d="M331.04,96.225c-3.599-2.052-4.854-6.632-2.803-10.229l6.227-10.925
		c2.051-3.6,6.631-4.848,10.228-2.803c3.599,2.052,4.853,6.632,2.803,10.229l-6.227,10.925
		C339.221,97.015,334.644,98.275,331.04,96.225z"/>
	<path style="fill:#94DCED;" d="M310.734,131.854c-3.599-2.051-4.853-6.631-2.802-10.228l6.227-10.923
		c2.051-3.599,6.632-4.852,10.229-2.802c3.599,2.051,4.853,6.631,2.802,10.228l-6.227,10.923
		C318.913,132.651,314.332,133.905,310.734,131.854z"/>
	<path style="fill:#94DCED;" d="M216.207,24.963c-3.599-2.051-4.853-6.631-2.802-10.229l6.227-10.925
		c2.052-3.6,6.633-4.853,10.229-2.802c3.599,2.051,4.853,6.631,2.802,10.228l-6.227,10.925
		C224.386,25.76,219.805,27.014,216.207,24.963z"/>
	<path style="fill:#94DCED;" d="M175.596,96.225c-3.599-2.052-4.854-6.632-2.803-10.229l6.227-10.925
		c2.051-3.6,6.632-4.848,10.229-2.803c3.599,2.052,4.854,6.632,2.803,10.229l-6.227,10.925
		C183.777,97.015,179.2,98.275,175.596,96.225z"/>
	<path style="fill:#94DCED;" d="M155.29,131.854c-3.599-2.051-4.853-6.631-2.802-10.228l6.227-10.923
		c2.05-3.599,6.632-4.852,10.229-2.802c3.599,2.051,4.853,6.631,2.802,10.228l-6.227,10.923
		C163.469,132.651,158.888,133.905,155.29,131.854z"/>
	<path style="fill:#94DCED;" d="M423.465,24.963c-3.599-2.051-4.853-6.631-2.802-10.229l6.228-10.925
		c2.052-3.6,6.632-4.853,10.229-2.802c3.599,2.051,4.853,6.631,2.802,10.228l-6.228,10.925
		C431.643,25.761,427.062,27.013,423.465,24.963z"/>
	<path style="fill:#94DCED;" d="M382.854,96.225c-3.599-2.052-4.853-6.632-2.803-10.229l6.227-10.925
		c2.051-3.6,6.633-4.848,10.229-2.803c3.599,2.052,4.853,6.632,2.803,10.229l-6.227,10.925
		C391.035,97.015,386.458,98.275,382.854,96.225z"/>
	<path style="fill:#94DCED;" d="M362.548,131.854c-3.599-2.051-4.853-6.631-2.802-10.228l6.227-10.924
		c2.051-3.6,6.63-4.854,10.229-2.802c3.599,2.051,4.853,6.631,2.802,10.228l-6.227,10.924
		C370.726,132.651,366.147,133.906,362.548,131.854z"/>
	<path style="fill:#94DCED;" d="M342.241,167.485c-3.599-2.052-4.853-6.632-2.801-10.229l6.228-10.923
		c2.051-3.598,6.632-4.851,10.229-2.801c3.599,2.052,4.853,6.632,2.801,10.229l-6.228,10.923
		C350.417,168.284,345.836,169.535,342.241,167.485z"/>
	<path style="fill:#94DCED;" d="M164.394,24.963c-3.599-2.051-4.853-6.631-2.802-10.229l6.228-10.925
		c2.051-3.6,6.633-4.853,10.229-2.802c3.599,2.051,4.853,6.631,2.802,10.228l-6.228,10.925
		C172.572,25.76,167.991,27.014,164.394,24.963z"/>
	<path style="fill:#94DCED;" d="M123.782,96.225c-3.599-2.052-4.854-6.632-2.803-10.229l6.227-10.925
		c2.051-3.6,6.632-4.848,10.228-2.803c3.599,2.052,4.854,6.632,2.803,10.229l-6.227,10.925
		C131.963,97.015,127.386,98.275,123.782,96.225z"/>
	<path style="fill:#94DCED;" d="M103.476,131.854c-3.599-2.051-4.853-6.631-2.802-10.228l6.227-10.924
		c2.052-3.6,6.631-4.854,10.229-2.802c3.599,2.051,4.853,6.631,2.802,10.228l-6.227,10.924
		C111.654,132.65,107.077,133.906,103.476,131.854z"/>
	<path style="fill:#94DCED;" d="M83.169,167.485c-3.599-2.052-4.853-6.632-2.801-10.229l6.228-10.923
		c2.052-3.598,6.633-4.851,10.229-2.801c3.599,2.052,4.853,6.632,2.801,10.229l-6.228,10.923
		C91.346,168.283,86.766,169.536,83.169,167.485z"/>
	<path style="fill:#94DCED;" d="M112.579,24.963c-3.599-2.051-4.853-6.631-2.802-10.229l6.228-10.925
		c2.052-3.6,6.633-4.853,10.229-2.802c3.599,2.051,4.853,6.631,2.802,10.228l-6.228,10.925
		C120.757,25.76,116.176,27.014,112.579,24.963z"/>
	<path style="fill:#94DCED;" d="M71.967,96.225c-3.599-2.052-4.854-6.632-2.803-10.229l6.227-10.925
		c2.051-3.6,6.631-4.848,10.228-2.803c3.599,2.052,4.854,6.632,2.803,10.229l-6.227,10.925
		C80.147,97.017,75.569,98.274,71.967,96.225z"/>
	<path style="fill:#94DCED;" d="M51.661,131.854c-3.599-2.051-4.853-6.631-2.802-10.228l6.226-10.924
		c2.052-3.6,6.631-4.854,10.229-2.802c3.599,2.051,4.853,6.631,2.802,10.228l-6.227,10.924
		C59.84,132.65,55.262,133.906,51.661,131.854z"/>
	<path style="fill:#94DCED;" d="M31.354,167.485c-3.599-2.052-4.852-6.632-2.801-10.229l6.227-10.923
		c2.052-3.598,6.632-4.851,10.229-2.801c3.599,2.052,4.853,6.632,2.801,10.229l-6.228,10.923
		C39.532,168.283,34.951,169.536,31.354,167.485z"/>
	<path style="fill:#94DCED;" d="M319.837,24.963c-3.599-2.051-4.853-6.631-2.802-10.229l6.228-10.925
		c2.052-3.6,6.632-4.853,10.229-2.802c3.599,2.051,4.853,6.631,2.802,10.228l-6.227,10.925
		C328.015,25.76,323.435,27.014,319.837,24.963z"/>
	<path style="fill:#94DCED;" d="M279.225,96.225c-3.599-2.052-4.853-6.632-2.803-10.229l6.227-10.925
		c2.051-3.6,6.632-4.848,10.228-2.803c3.599,2.052,4.854,6.632,2.803,10.229l-6.227,10.925
		C287.406,97.015,282.83,98.275,279.225,96.225z"/>
	<path style="fill:#94DCED;" d="M268.022,24.963c-3.599-2.051-4.853-6.631-2.802-10.229l6.228-10.925
		c2.051-3.6,6.633-4.853,10.229-2.802c3.599,2.051,4.853,6.631,2.802,10.228l-6.228,10.925
		C276.2,25.76,271.619,27.014,268.022,24.963z"/>
</g>
<path style="fill:#76B4FF;" d="M433.208,390.332c-17.121,24.982-53.796,24.935-70.883,0c-17.12,24.982-53.796,24.935-70.884,0
	c-17.119,24.982-53.793,24.935-70.883,0.001c-17.116,24.976-53.791,24.939-70.883-0.001c-17.119,24.983-53.795,24.934-70.883,0
	c-17.274,25.207-54.429,24.908-71.287-0.604v102.74c0,6.629,5.372,11.999,11.999,11.999h472.945c6.627,0,11.999-5.371,11.999-11.999
	V389.799C487.553,415.253,450.455,415.501,433.208,390.332z"/>
<path style="fill:#97C9FF;" d="M433.208,390.332c-17.121,24.982-53.796,24.935-70.883,0c-17.12,24.982-53.796,24.935-70.884,0
	c-17.119,24.982-53.793,24.935-70.883,0.001c-7.558,11.026-20.123,18.35-34.391,18.695c9.736,37.492,30.516,70.525,58.656,95.438
	h247.625c6.627,0,11.999-5.371,11.999-11.999V389.799C487.553,415.253,450.455,415.501,433.208,390.332z"/>
<path d="M511.555,368.588c0.111-10.581-14.988-10.329-14.988-0.452c0,15.406-12.535,27.94-27.943,27.94s-27.942-12.533-27.942-27.94
	c0-4.143-3.357-7.5-7.5-7.5s-7.5,3.357-7.5,7.5c0,14.799-11.569,26.942-26.139,27.876l39.853-58.69l41.882-8.337
	c4.063-0.809,6.7-4.757,5.892-8.819c-0.808-4.063-4.756-6.702-8.819-5.892l-26.947,5.364l14.07-20.721
	c8.969-13.202-2.481-30.893-18.321-27.874c-4.736,0.905-8.837,3.601-11.545,7.591l-34.891,51.382l-5.748-37.944
	c-0.62-4.096-4.461-6.91-8.538-6.292c-4.096,0.62-6.913,4.443-6.292,8.538l8.175,53.962l-17.783,26.188
	c-0.474-2.037-0.733-4.155-0.733-6.334c0-4.143-3.357-7.5-7.5-7.5s-7.5,3.357-7.5,7.5c0,13.663-9.862,25.06-22.84,27.465
	l-0.012-37.717c-0.001-4.137-3.353-7.498-7.502-7.498c-4.143,0.001-7.499,3.36-7.498,7.502l0.012,36.372
	c-10.534-4.004-18.044-14.201-18.044-26.124c0-4.143-3.357-7.5-7.5-7.5s-7.5,3.357-7.5,7.5c0,11.831-7.396,21.96-17.803,26.028
	l-0.025-70.779c-0.002-13.834-11.197-25.041-25.046-25.041c-0.023,0-40.94,0.014-40.964,0.014
	c-13.847,0.002-25.046,11.209-25.042,25.056l0.025,70.795c-10.466-4.039-17.914-14.199-17.914-26.072c0-4.143-3.357-7.5-7.5-7.5
	c-4.143,0-7.5,3.357-7.5,7.5c0,11.88-7.458,22.047-17.934,26.081l-0.047-138.851l96.342-97.455l96.404,97.389l0.026,76.587
	c0.002,4.142,3.359,7.497,7.5,7.497c4.142,0,7.502-3.359,7.5-7.503l-0.021-61.425c4.436,4.484,9.54,7.006,15.956,7.006
	c18.994,0,28.934-23.105,15.354-36.817L302.507,179.3c-2.915-2.944-7.664-2.967-10.606-0.054c-2.943,2.914-2.968,7.663-0.054,10.605
	l60.724,61.345c2.565,2.591,2.557,6.773-0.049,9.352c-2.596,2.57-6.781,2.552-9.353-0.049
	C216.645,132.686,224.916,139.746,220.506,139.746c-4.542,0,3.359-6.564-122.587,120.835c-4.11,4.156-11.282,1.3-11.318-4.612
	c-0.011-1.766,0.667-3.428,1.911-4.685C225.895,112.314,216.546,120.57,220.498,120.567c3.848-0.002,0.761-2.024,53.315,51.066
	c2.915,2.943,7.664,2.967,10.605,0.054c2.943-2.914,2.968-7.663,0.054-10.605l-48.621-49.116c-8.48-8.546-22.305-8.495-30.727,0.021
	L77.848,240.736c-8.402,8.489-8.327,22.161,0.17,30.563c8.153,8.065,21.645,8.849,31.156-0.768l0.042,125.088
	c-13.032-2.361-22.951-13.782-22.951-27.485c0-4.143-3.357-7.5-7.5-7.5s-7.5,3.357-7.5,7.5c0,15.406-12.534,27.94-27.942,27.94
	s-27.942-12.533-27.942-27.94c0-4.143-3.358-7.5-7.5-7.5c-4.143,0-7.5,3.357-7.5,7.5c0,0.192,0.012,0.381,0.014,0.572
	c-0.547,1.68-0.371-6.096-0.371,123.774c0,10.751,8.748,19.499,19.499,19.499h84.843c4.143,0,7.5-3.357,7.5-7.5
	c0-4.142-3.357-7.5-7.5-7.5H19.526c-2.481,0-4.5-2.018-4.5-4.5v-30.229c19.344,16.99,49.126,13.279,63.74-8.046
	c17.121,24.982,53.795,24.934,70.883,0c17.12,24.981,53.795,24.934,70.883,0c7.744,11.299,20.74,18.729,35.442,18.729
	c14.702,0,27.698-7.431,35.441-18.729c17.12,24.983,53.795,24.933,70.883,0c17.121,24.982,53.796,24.933,70.883,0
	c14.607,21.314,44.425,25.061,63.788,8.005v30.27c0,2.482-2.019,4.5-4.5,4.5H129.867c-4.143,0-7.5,3.358-7.5,7.5
	c0,4.143,3.357,7.5,7.5,7.5h362.604c10.751,0,19.499-8.748,19.499-19.499C511.97,362.675,512.167,370.364,511.555,368.588z
	 M449.97,285.776c2.694-0.51,4.606,2.495,3.098,4.715L383.88,392.379c-1.776-1.02-3.435-2.222-4.939-3.593
	C452.694,280.175,448.144,286.126,449.97,285.776z M200.083,313.357c0.001,0,40.959-0.014,40.958-0.014
	c5.551,0,10.046,4.488,10.048,10.046l0.025,72.255c-13.097-2.308-23.083-13.76-23.083-27.509c0-4.143-3.357-7.5-7.5-7.5
	c-4.143,0-7.5,3.357-7.5,7.5c0,13.709-9.927,25.135-22.97,27.489l-0.026-72.216C190.035,317.854,194.526,313.357,200.083,313.357z
	 M496.567,429.996c0,15.406-12.535,27.94-27.943,27.94s-27.942-12.533-27.942-27.94c0-4.143-3.357-7.5-7.5-7.5s-7.5,3.357-7.5,7.5
	c0,15.406-12.535,27.94-27.943,27.94c-15.406,0-27.941-12.533-27.941-27.94c0-4.143-3.357-7.5-7.5-7.5s-7.5,3.357-7.5,7.5
	c0,15.406-12.535,27.94-27.943,27.94c-15.406,0-27.941-12.533-27.941-27.94c0-4.143-3.357-7.5-7.5-7.5s-7.5,3.357-7.5,7.5
	c0,15.406-12.534,27.94-27.942,27.94s-27.943-12.533-27.943-27.94c0-4.143-3.357-7.5-7.5-7.5c-4.143,0-7.5,3.357-7.5,7.5
	c0,15.406-12.534,27.94-27.942,27.94s-27.942-12.533-27.942-27.94c0-4.143-3.357-7.5-7.5-7.5c-4.143,0-7.5,3.357-7.5,7.5
	c0,15.406-12.534,27.94-27.942,27.94s-27.946-12.533-27.946-27.94c0-4.143-3.357-7.5-7.5-7.5s-7.5,3.357-7.5,7.5
	c0,15.406-12.534,27.94-27.942,27.94s-27.942-12.533-27.942-27.94c0-0.796-0.127-1.563-0.357-2.283v-27.322
	c19.344,16.99,49.125,13.279,63.74-8.046c17.121,24.982,53.795,24.934,70.883,0c17.12,24.981,53.795,24.934,70.883,0
	c17.12,24.982,53.796,24.934,70.884,0c17.12,24.983,53.795,24.933,70.883,0c17.121,24.982,53.796,24.933,70.883,0
	c14.607,21.314,44.425,25.061,63.788,8.005v27.235C496.713,428.342,496.567,429.151,496.567,429.996z"/>
<path d="M182.522,280.904l76.054-0.025c4.142-0.001,7.498-3.36,7.497-7.503c-0.001-4.134-3.351-7.497-7.503-7.497l-76.054,0.025
	c-4.142,0.001-7.498,3.36-7.497,7.503C175.02,277.542,178.37,280.904,182.522,280.904z"/>
<path d="M258.564,255.037c4.143-0.001,7.499-3.36,7.498-7.502c-0.001-4.137-3.353-7.498-7.502-7.498l-76.052,0.022
	c-4.143,0.001-7.499,3.36-7.498,7.502c0.001,4.142,3.358,7.498,7.5,7.498C182.513,255.06,258.483,255.037,258.564,255.037z"/>
<path d="M478.959,25.962c2.606,0,5.14-1.36,6.522-3.787l6.228-10.925c2.052-3.599,0.797-8.179-2.802-10.228
	c-3.598-2.05-8.179-0.797-10.228,2.802l-6.228,10.925C469.589,19.766,473.252,25.962,478.959,25.962z"/>
<path d="M458.653,61.592c2.606,0,5.14-1.36,6.522-3.787l6.228-10.925c2.052-3.599,0.797-8.179-2.802-10.228
	c-3.598-2.052-8.179-0.796-10.229,2.802l-6.228,10.925C449.284,55.396,452.946,61.592,458.653,61.592z"/>
<path d="M438.064,75.083l-6.227,10.925c-2.854,5.008,0.79,11.214,6.51,11.214c2.607,0,5.14-1.36,6.523-3.787l6.227-10.925
	c2.051-3.599,0.796-8.179-2.803-10.229C444.692,70.234,440.115,71.485,438.064,75.083z"/>
<path d="M418.041,132.854c2.606,0,5.14-1.36,6.522-3.787l6.227-10.924c2.052-3.599,0.797-8.179-2.802-10.228
	c-3.598-2.052-8.179-0.796-10.228,2.802l-6.227,10.924C408.671,126.657,412.334,132.854,418.041,132.854z"/>
<path d="M397.735,168.485c2.606,0,5.14-1.36,6.522-3.786l6.228-10.923c2.052-3.599,0.797-8.179-2.801-10.229
	c-3.599-2.05-8.179-0.798-10.229,2.801l-6.227,10.923C388.364,162.288,392.026,168.485,397.735,168.485z"/>
<path d="M377.429,204.116c2.607,0,5.14-1.36,6.522-3.786l6.228-10.923c2.052-3.599,0.797-8.179-2.801-10.229
	c-3.601-2.049-8.18-0.798-10.229,2.801l-6.228,10.923C368.058,197.92,371.72,204.116,377.429,204.116z"/>
<path d="M375.33,25.962c2.606,0,5.14-1.36,6.522-3.787l6.228-10.925c2.052-3.599,0.797-8.179-2.802-10.228
	s-8.179-0.797-10.228,2.802l-6.228,10.925C365.96,19.766,369.623,25.962,375.33,25.962z"/>
<path d="M355.025,61.593c2.607,0,5.14-1.36,6.523-3.787l6.227-10.925c2.052-3.599,0.797-8.179-2.802-10.228
	s-8.179-0.797-10.228,2.802l-6.228,10.925C345.655,55.397,349.317,61.593,355.025,61.593z"/>
<path d="M334.435,75.083l-6.227,10.925c-2.854,5.008,0.79,11.214,6.51,11.214c2.607,0,5.14-1.36,6.523-3.787l6.227-10.925
	c2.051-3.599,0.796-8.179-2.803-10.229C341.065,70.234,336.487,71.485,334.435,75.083z"/>
<path d="M324.36,107.914c-3.597-2.049-8.178-0.797-10.228,2.802l-6.227,10.923c-2.052,3.599-0.797,8.179,2.802,10.228
	c3.598,2.051,8.179,0.797,10.228-2.802l6.227-10.923C329.212,114.545,327.957,109.965,324.36,107.914z"/>
<path d="M219.886,25.962c2.607,0,5.14-1.36,6.523-3.787l6.227-10.925c2.052-3.599,0.797-8.179-2.802-10.228
	c-3.598-2.05-8.179-0.797-10.229,2.802l-6.228,10.925C210.516,19.766,214.179,25.962,219.886,25.962z"/>
<path d="M199.581,61.593c2.606,0,5.14-1.36,6.522-3.787l6.228-10.925c2.052-3.599,0.797-8.179-2.802-10.228
	c-3.598-2.05-8.179-0.797-10.229,2.802l-6.227,10.925C190.211,55.397,193.873,61.593,199.581,61.593z"/>
<path d="M178.991,75.083l-6.227,10.925c-2.854,5.008,0.79,11.214,6.51,11.214c2.606,0,5.14-1.36,6.523-3.787l6.227-10.925
	c2.051-3.599,0.796-8.179-2.803-10.229C185.621,70.234,181.042,71.485,178.991,75.083z"/>
<path d="M168.915,107.914c-3.596-2.049-8.178-0.797-10.228,2.802l-6.227,10.923c-2.052,3.599-0.797,8.179,2.802,10.228
	c3.598,2.051,8.179,0.797,10.228-2.802l6.227-10.923C173.768,114.545,172.513,109.965,168.915,107.914z"/>
<path d="M427.144,25.962c2.606,0,5.14-1.36,6.522-3.787l6.228-10.925c2.052-3.599,0.797-8.179-2.802-10.228
	s-8.179-0.797-10.229,2.802l-6.227,10.925C417.775,19.766,421.437,25.962,427.144,25.962z"/>
<path d="M406.838,61.592c2.606,0,5.14-1.36,6.522-3.787l6.228-10.925c2.052-3.599,0.797-8.179-2.802-10.228
	c-3.599-2.052-8.179-0.796-10.228,2.802l-6.228,10.924C397.469,55.396,401.132,61.592,406.838,61.592z"/>
<path d="M386.248,75.083l-6.227,10.925c-2.854,5.008,0.79,11.214,6.51,11.214c2.606,0,5.14-1.36,6.523-3.787l6.227-10.925
	c2.051-3.599,0.796-8.179-2.803-10.229C392.878,70.234,388.3,71.485,386.248,75.083z"/>
<path d="M366.226,132.854c2.606,0,5.14-1.36,6.522-3.787l6.227-10.924c2.052-3.599,0.797-8.179-2.802-10.228
	c-3.598-2.052-8.179-0.796-10.228,2.802l-6.227,10.924C356.857,126.657,360.519,132.854,366.226,132.854z"/>
<path d="M355.868,143.545c-3.599-2.05-8.18-0.798-10.229,2.801l-6.228,10.923c-2.052,3.599-0.797,8.179,2.801,10.229
	c3.606,2.054,8.183,0.792,10.229-2.801l6.228-10.923C360.721,150.177,359.466,145.597,355.868,143.545z"/>
<path d="M168.072,25.962c2.607,0,5.14-1.36,6.523-3.787l6.227-10.925c2.052-3.599,0.797-8.179-2.802-10.228
	c-3.598-2.05-8.179-0.797-10.228,2.802l-6.228,10.925C158.703,19.766,162.365,25.962,168.072,25.962z"/>
<path d="M147.766,61.592c2.606,0,5.14-1.36,6.523-3.787l6.227-10.925c2.052-3.599,0.797-8.179-2.802-10.228
	c-3.598-2.052-8.179-0.796-10.228,2.802l-6.228,10.925C138.397,55.396,142.06,61.592,147.766,61.592z"/>
<path d="M127.177,75.083l-6.227,10.925c-2.854,5.008,0.79,11.214,6.51,11.214c2.606,0,5.14-1.36,6.523-3.787l6.227-10.925
	c2.051-3.599,0.796-8.179-2.803-10.229C133.806,70.234,129.228,71.485,127.177,75.083z"/>
<path d="M107.155,132.854c2.606,0,5.14-1.36,6.522-3.787l6.227-10.924c2.052-3.599,0.797-8.179-2.802-10.228
	c-3.598-2.052-8.179-0.796-10.228,2.802l-6.227,10.924C97.785,126.657,101.447,132.854,107.155,132.854z"/>
<path d="M96.796,143.545c-3.6-2.05-8.18-0.798-10.229,2.801l-6.228,10.923c-2.052,3.599-0.797,8.179,2.801,10.229
	c3.606,2.054,8.183,0.792,10.229-2.801l6.228-10.923C101.649,150.177,100.394,145.597,96.796,143.545z"/>
<path d="M116.257,25.962c2.606,0,5.14-1.36,6.522-3.787l6.227-10.925c2.052-3.599,0.797-8.179-2.802-10.228
	c-3.599-2.05-8.179-0.797-10.228,2.802l-6.228,10.925C106.889,19.766,110.55,25.962,116.257,25.962z"/>
<path d="M95.952,61.592c2.606,0,5.14-1.36,6.522-3.787l6.228-10.925c2.052-3.599,0.797-8.179-2.802-10.228
	c-3.599-2.052-8.179-0.796-10.229,2.802l-6.227,10.924C86.583,55.396,90.244,61.592,95.952,61.592z"/>
<path d="M75.645,97.222c2.606,0,5.14-1.36,6.523-3.787l6.227-10.925c2.051-3.599,0.796-8.179-2.803-10.229
	c-3.602-2.047-8.178-0.796-10.229,2.803l-6.227,10.925C66.282,91.016,69.926,97.222,75.645,97.222z"/>
<path d="M55.34,132.854c2.606,0,5.14-1.36,6.522-3.787l6.227-10.924c2.052-3.599,0.797-8.179-2.802-10.228
	c-3.599-2.052-8.179-0.796-10.228,2.802l-6.227,10.924C45.971,126.657,49.632,132.854,55.34,132.854z"/>
<path d="M35.033,168.485c2.607,0,5.14-1.36,6.523-3.786l6.227-10.923c2.052-3.599,0.797-8.179-2.801-10.229
	c-3.6-2.05-8.179-0.798-10.23,2.801l-6.228,10.923C25.663,162.288,29.325,168.485,35.033,168.485z"/>
<path d="M323.516,25.962c2.606,0,5.14-1.36,6.522-3.787l6.228-10.925c2.052-3.599,0.797-8.179-2.802-10.228
	s-8.179-0.797-10.228,2.802l-6.228,10.925C314.146,19.766,317.808,25.962,323.516,25.962z"/>
<path d="M303.21,61.592c2.606,0,5.14-1.36,6.522-3.787l6.228-10.925c2.052-3.599,0.797-8.179-2.802-10.228
	c-3.599-2.052-8.179-0.796-10.229,2.802l-6.227,10.925C293.84,55.396,297.503,61.592,303.21,61.592z"/>
<path d="M282.62,75.083l-6.227,10.925c-2.854,5.008,0.79,11.214,6.51,11.214c2.607,0,5.14-1.36,6.523-3.787l6.227-10.925
	c2.051-3.599,0.796-8.179-2.803-10.229C289.248,70.234,284.673,71.485,282.62,75.083z"/>
<path d="M271.701,25.962c2.607,0,5.14-1.36,6.522-3.787l6.228-10.925c2.052-3.599,0.797-8.179-2.802-10.228
	s-8.179-0.797-10.228,2.802l-6.228,10.925C262.332,19.766,265.993,25.962,271.701,25.962z"/>
<path d="M251.395,61.592c2.606,0,5.14-1.36,6.522-3.787l6.228-10.925c2.052-3.599,0.797-8.179-2.802-10.228
	c-3.598-2.052-8.179-0.796-10.228,2.802l-6.228,10.925C242.026,55.396,245.688,61.592,251.395,61.592z"/>
<g>
</g>
<g>
</g>
<g>
</g>
<g>
</g>
<g>
</g>
<g>
</g>
<g>
</g>
<g>
</g>
<g>
</g>
<g>
</g>
<g>
</g>
<g>
</g>
<g>
</g>
<g>
</g>
<g>
</g>
</svg>
